<?xml version="1.0" encoding="UTF-8" standalone="no"?>
<svg width="360px" height="360px" viewBox="0 0 360 360" version="1.1" xmlns="http://www.w3.org/2000/svg" xmlns:xlink="http://www.w3.org/1999/xlink" xmlns:sketch="http://www.bohemiancoding.com/sketch/ns">
    <!-- Generator: Sketch 3.3.2 (12043) - http://www.bohemiancoding.com/sketch -->
    <title>staff-avatar</title>
    <desc>Created with Sketch.</desc>
    <defs>
        <rect id="path-1" x="0" y="0" width="360" height="360"></rect>
        <filter x="-50%" y="-50%" width="200%" height="200%" filterUnits="objectBoundingBox" id="filter-3">
            <feOffset dx="0" dy="2" in="SourceAlpha" result="shadowOffsetOuter1"></feOffset>
            <feGaussianBlur stdDeviation="5" in="shadowOffsetOuter1" result="shadowBlurOuter1"></feGaussianBlur>
            <feColorMatrix values="0 0 0 0 0   0 0 0 0 0   0 0 0 0 0  0 0 0 0.2732988 0" in="shadowBlurOuter1" type="matrix" result="shadowMatrixOuter1"></feColorMatrix>
            <feMerge>
                <feMergeNode in="shadowMatrixOuter1"></feMergeNode>
                <feMergeNode in="SourceGraphic"></feMergeNode>
            </feMerge>
        </filter>
    </defs>
    <g id="Page-1" stroke="none" stroke-width="1" fill="none" fill-rule="evenodd" sketch:type="MSPage">
        <g id="Artboard-1" sketch:type="MSArtboardGroup" transform="translate(-115.000000, -75.000000)">
            <g id="staff-avatar" sketch:type="MSLayerGroup" transform="translate(115.000000, 75.000000)">
                <mask id="mask-2" sketch:name="Mask" fill="white">
                    <use xlink:href="#path-1"></use>
                </mask>
                <use id="Mask" fill="#5E8CBA" sketch:type="MSShapeGroup" xlink:href="#path-1"></use>
                <path d="M342,345.8125 C342,278.468262 220.875,292.031738 220.875,238.093262 C220.875,238.093262 261.25,197.718262 261.25,123.75 C261.25,79.2744141 224.975586,43 180.5,43 C136.024414,43 99.75,79.2744141 99.75,123.75 C99.75,197.718262 140.125,238.093262 140.125,238.093262 C140.125,292.031738 19,278.468262 19,345.8125 L19,359.218262 C19,363.003418 21.996582,366 25.7817383,366 L335.218262,366 C339.003418,366 342,363.003418 342,359.218262 L342,345.8125 Z" id="user" fill="#FFFFFF" filter="url(#filter-3)" sketch:type="MSShapeGroup" mask="url(#mask-2)"></path>
            </g>
        </g>
    </g>
</svg>